# xmcd CD database file
#
# Track frame offsets:
#	150
#	32722
#	71047
#	101840
#	135047
#	169000
#	189875
#	227387
#	240550
#	266405
#
# Disc length: 3826 seconds
#
# Revision: 0
# Processed by: cddbd v1.5PL3 Copyright (c) Steve Scherf et al.
# Submitted via: CDex 1.51
#
DISCID=750ef00a
DTITLE=The Mark Turner  - Jeff Ballard - Larry Grenadier Project - Fly
DYEAR=2004
DGENRE=Jazz
TTITLE0=Child's Play
TTITLE1=Fly Mr. Freakjar
TTITLE2=Stark
TTITLE3=JJ
TTITLE4=State Of The Union
TTITLE5=Emergence/Resurgence
TTITLE6=Todas Las Cosas Se Van
TTITLE7=Piano Tune
TTITLE8=Spanish Castle Magic
TTITLE9=Lone
EXTD=YEAR: 2004
EXTT0=
EXTT1=
EXTT2=
EXTT3=
EXTT4=
EXTT5=
EXTT6=
EXTT7=
EXTT8=
EXTT9=
PLAYORDER=
